<svg version="1.1" id="Layer_1" xmlns="http://www.w3.org/2000/svg" xmlns:xlink="http://www.w3.org/1999/xlink" x="0px" y="0px"
	 width="100%" viewBox="0 0 1128 406" enable-background="new 0 0 1128 406" xml:space="preserve">
<path fill="#107400" opacity="1.000000" stroke="none" 
	d="
M346.070160,301.087128 
	C356.326813,298.443237 366.670197,296.090668 376.814880,293.070648 
	C386.290527,290.249786 395.749298,288.398254 405.708374,288.921539 
	C413.268188,289.318756 420.865570,289.000305 428.446259,289.000305 
	C428.527039,289.443237 428.607849,289.886200 428.688629,290.329132 
	C423.968781,291.972107 419.304291,293.800964 414.519379,295.225372 
	C395.144745,300.993164 375.744202,306.675018 356.326843,312.297424 
	C351.718536,313.631805 347.065948,315.054596 342.333832,315.675842 
	C326.826813,317.711700 314.344147,325.310089 302.332977,334.930267 
	C282.236786,351.026123 260.408173,364.726257 237.566055,376.583099 
	C217.968903,386.755554 197.780380,396.015503 175.507187,398.446625 
	C166.888931,399.387299 157.650375,399.383942 149.327606,397.291779 
	C132.770691,393.129700 125.950897,380.919861 125.014259,362.755890 
	C124.762459,357.872894 126.109634,352.669220 122.030853,348.609192 
	C116.823540,343.425842 110.649895,339.890594 103.332375,339.086853 
	C82.150978,336.760254 61.341480,332.844604 41.835876,323.982422 
	C30.175476,318.684601 19.210300,312.170410 12.292346,300.668488 
	C5.255630,288.969116 5.227978,276.635651 9.575080,264.248840 
	C13.406532,253.331329 20.311491,244.235840 27.870140,235.501053 
	C43.807156,217.084167 63.379856,203.235321 83.505646,190.009842 
	C84.689499,189.231903 86.000526,188.647491 87.252365,187.973007 
	C87.626869,188.369019 88.001366,188.765030 88.375870,189.161041 
	C86.972137,190.599899 85.772835,192.348724 84.133301,193.430054 
	C66.066460,205.345901 48.764210,218.232346 34.233200,234.385498 
	C25.329062,244.283646 17.482037,254.927414 14.850531,268.545166 
	C11.969167,283.455963 17.609705,294.952179 28.976864,303.915070 
	C43.568867,315.420685 60.926701,320.607819 78.819374,323.857574 
	C91.336784,326.131042 104.026115,327.587219 116.697327,328.790894 
	C119.753242,329.081207 123.868958,327.790161 126.042496,325.707794 
	C129.997772,321.918365 133.472992,317.318817 136.071640,312.479126 
	C144.609299,296.578583 152.631363,280.401672 160.961411,264.388153 
	C161.687698,262.991943 163.219116,262.014587 164.376541,260.842651 
	C164.826096,261.174438 165.275650,261.506226 165.725204,261.838013 
	C162.473007,267.399261 159.008713,272.849091 156.014999,278.546173 
	C150.615097,288.822266 145.096848,299.071503 140.453781,309.692902 
	C138.545151,314.058990 138.487854,319.338623 138.124100,324.242432 
	C137.838852,328.087982 139.625412,330.329712 144.119812,330.051636 
	C162.161880,328.935455 180.251663,328.448120 198.258636,326.946808 
	C216.560913,325.420807 234.876953,323.563232 253.021057,320.772339 
	C272.473267,317.780212 291.677307,313.200287 311.100555,309.982910 
	C319.632721,308.569580 325.382416,303.315369 331.236023,298.119446 
	C344.024414,286.767883 356.517273,275.080719 369.027649,263.419922 
	C373.718597,259.047546 379.028900,261.806458 384.030243,261.095947 
	C384.393433,261.617279 384.756592,262.138611 385.119751,262.659943 
	C371.983490,275.069489 358.847260,287.479034 345.374146,300.292419 
	C345.010803,300.976807 344.984283,301.257416 344.957764,301.537994 
	C345.328552,301.387695 345.699371,301.237396 346.070160,301.087128 
M240.742157,335.084625 
	C221.474579,337.054810 202.234039,339.373077 182.929886,340.872070 
	C170.184631,341.861816 157.347107,341.645325 144.552567,342.025269 
	C137.827637,342.224976 129.662689,348.738800 129.278748,355.482422 
	C128.641785,366.670502 131.295288,377.042633 141.132095,384.016785 
	C152.913864,392.369843 166.086426,390.747559 179.061996,388.379669 
	C194.679276,385.529694 209.116760,379.141724 223.380844,372.359192 
	C245.495773,361.843628 265.772675,348.317902 285.850952,334.462555 
	C288.707642,332.491241 291.317566,330.162354 294.041687,327.998962 
	C286.343811,328.088257 279.222443,329.340179 272.079437,330.453369 
	C261.941498,332.033264 251.787659,333.511047 240.742157,335.084625 
z"/>
<path fill="#001DC9" opacity="1.000000" stroke="none" 
	d="
M838.999695,209.000000 
	C838.999390,217.163147 839.008057,224.826309 838.995789,232.489441 
	C838.986328,238.413864 836.534363,241.789993 831.077332,243.448105 
	C826.834290,244.737335 822.325317,242.851974 819.205078,238.345016 
	C811.162415,226.728210 803.150146,215.090317 795.148682,203.445068 
	C786.693787,191.140060 778.281738,178.805511 769.794800,166.522705 
	C769.103699,165.522522 767.979919,164.821320 766.282898,163.276184 
	C766.157776,165.979584 766.009521,167.706711 766.008240,169.433960 
	C765.991943,191.590439 765.927795,213.747330 766.059326,235.903030 
	C766.083069,239.893585 764.162659,242.667343 760.880371,243.376129 
	C758.919312,243.799591 756.197327,241.899246 754.215332,240.485550 
	C753.313904,239.842621 753.053284,237.848358 753.050110,236.465805 
	C752.986084,208.645386 753.049500,180.824631 752.954834,153.004395 
	C752.939209,148.414322 755.721863,145.889038 759.132568,144.211411 
	C762.695862,142.458725 766.588257,142.650116 769.454163,146.016602 
	C772.654724,149.776230 775.898499,153.537445 778.704163,157.588379 
	C792.897766,178.082077 806.947266,198.675568 821.075012,219.214951 
	C822.180420,220.821960 823.498535,222.282623 825.691528,225.032196 
	C825.835083,222.193802 825.987427,220.570404 825.988647,218.946899 
	C826.004639,197.456787 825.999512,175.966644 825.999695,154.476517 
	C825.999695,153.476974 825.979187,152.476868 826.005249,151.477982 
	C826.121582,147.017365 829.062439,143.112732 832.231750,143.192001 
	C836.036499,143.287155 838.970581,146.780182 838.981079,151.526047 
	C839.023193,170.517288 838.999207,189.508667 838.999695,209.000000 
z"/>
<path fill="#001DC9" opacity="1.000000" stroke="none" 
	d="
M639.907532,152.914978 
	C639.638977,148.099838 642.989136,145.851303 646.571106,144.078857 
	C650.638550,142.066177 654.499878,143.157532 657.089661,146.685120 
	C664.779541,157.159576 672.282104,167.773972 679.732727,178.421204 
	C690.254822,193.457718 700.664856,208.572678 712.294495,223.529602 
	C712.529663,221.760284 712.965820,219.991379 712.969543,218.221573 
	C713.016113,196.075409 712.996643,173.929138 713.003235,151.782883 
	C713.004578,147.194992 716.086365,142.944550 719.233337,143.138275 
	C722.750488,143.354782 725.987610,147.534882 725.990784,152.031479 
	C726.009888,178.673584 726.018127,205.315704 725.987488,231.957779 
	C725.980530,238.021271 722.944092,242.581421 717.486694,243.742172 
	C712.414917,244.820908 708.813232,242.131699 705.957336,237.971970 
	C691.004700,216.192581 675.965576,194.472412 660.915588,172.760040 
	C658.820251,169.737091 656.498169,166.871262 654.281006,163.932693 
	C653.855347,164.051895 653.429626,164.171097 653.003906,164.290298 
	C653.003906,165.996140 653.003906,167.701996 653.003906,169.407837 
	C653.003845,190.555008 653.003845,211.702179 653.003662,232.849350 
	C653.003662,233.848434 652.968933,234.848770 653.007019,235.846375 
	C653.174805,240.246918 650.680176,242.983124 646.754089,243.468887 
	C643.191284,243.909729 640.767944,241.482651 639.965088,236.978592 
	C639.932312,208.398819 639.919922,180.656891 639.907532,152.914978 
z"/>
<path fill="#001DC9" opacity="1.000000" stroke="none" 
	d="
M612.314087,219.139313 
	C598.642883,245.112640 565.553894,250.365311 543.527283,238.043915 
	C530.673340,230.853577 523.064758,219.145264 520.187378,204.787796 
	C517.117004,189.467178 519.873779,174.921600 529.048706,162.194260 
	C537.702393,150.190033 549.850586,143.845444 564.725647,143.004120 
	C577.449097,142.284485 589.218201,144.726212 599.519287,152.846603 
	C610.940735,161.850235 616.319092,173.858139 618.019592,187.938293 
	C619.334290,198.823868 616.785217,208.975479 612.314087,219.139313 
M599.554443,215.900879 
	C604.537964,207.095245 606.002502,197.488770 604.869446,187.666916 
	C603.923645,179.468369 601.400696,171.711441 595.165344,165.559067 
	C589.285156,159.757156 582.348022,157.058121 574.297974,155.550247 
	C563.540344,153.535233 546.753967,158.330307 539.711609,169.282547 
	C533.707764,178.619736 531.862305,188.250961 532.856140,199.109055 
	C534.363037,215.574020 543.096375,226.781158 558.533569,230.704498 
	C574.772217,234.831512 590.791626,229.191650 599.554443,215.900879 
z"/>
<path fill="#001DC9" opacity="1.000000" stroke="none" 
	d="
M881.022827,156.827271 
	C880.355408,157.575729 879.118652,158.315781 879.107422,159.073975 
	C878.973145,168.157639 879.020691,177.243958 879.020691,187.003098 
	C883.992920,187.003098 888.572266,187.002548 893.151550,187.003220 
	C903.098450,187.004700 913.064636,186.673233 922.978271,187.248642 
	C925.386719,187.388428 928.558838,190.057541 929.693481,192.385559 
	C931.034790,195.137558 929.416504,198.089752 924.992065,199.008057 
	C911.377869,199.029190 898.609802,198.962006 885.842834,199.053314 
	C883.576416,199.069534 881.314819,199.745102 879.050903,200.116211 
	C879.033691,208.440292 879.260864,216.774841 878.904968,225.084427 
	C878.700439,229.859283 880.771729,231.076416 885.020996,231.042557 
	C899.171570,230.929749 913.323914,231.057892 927.474792,230.965744 
	C931.652405,230.938553 934.722900,232.002228 934.974915,236.766556 
	C935.186218,240.762527 932.502197,242.969833 927.301880,242.981689 
	C909.487793,243.022278 891.673523,243.016846 873.859375,242.984360 
	C868.890686,242.975296 866.022583,240.049820 866.017578,234.953568 
	C865.990295,207.150131 865.994080,179.346649 866.018555,151.543213 
	C866.022400,147.197784 868.963928,144.063736 873.364868,144.043365 
	C891.511597,143.959320 909.662109,143.845657 927.802307,144.201263 
	C930.138428,144.247070 933.318176,146.463776 934.523315,148.577759 
	C936.407349,151.882751 933.933899,154.404816 930.008606,156.015594 
	C917.073792,156.033737 904.968506,155.950775 892.864563,156.041321 
	C888.915588,156.070847 884.969971,156.552444 881.022827,156.827271 
z"/>
<path fill="#001DC9" opacity="1.000000" stroke="none" 
	d="
M279.789734,218.711670 
	C264.450745,218.227249 249.309799,218.024811 234.172226,218.171524 
	C232.799728,218.184814 230.910080,220.186935 230.184967,221.706543 
	C227.572708,227.181076 225.351044,232.842285 222.992447,238.437454 
	C221.262039,242.542389 217.819107,244.518799 214.650604,243.206451 
	C210.194702,241.360901 208.985947,238.998245 210.967041,234.158615 
	C216.989243,219.446960 223.250290,204.833069 229.419113,190.181427 
	C234.634445,177.794510 239.849060,165.407288 245.070404,153.022903 
	C245.453232,152.114883 245.870605,151.220306 246.301773,150.334030 
	C248.214233,146.402985 251.145706,143.109741 255.581985,143.225830 
	C260.250549,143.347977 263.499054,146.280319 265.420746,150.897156 
	C276.881927,178.432541 288.522797,205.893097 300.084351,233.386749 
	C302.072693,238.115112 301.036896,241.110703 296.582275,243.068481 
	C292.385590,244.912872 290.055511,242.333694 288.539917,238.983749 
	C285.564972,232.408249 282.825562,225.726196 279.789734,218.711670 
M268.526947,190.982361 
	C264.488525,181.299606 260.450104,171.616852 256.411682,161.934097 
	C255.949615,161.912399 255.487564,161.890717 255.025497,161.869034 
	C248.983200,176.330505 242.940887,190.791962 236.735107,205.644653 
	C249.654617,205.644653 261.913147,205.644653 274.443054,205.644653 
	C272.495239,200.715042 270.705841,196.186401 268.526947,190.982361 
z"/>
<path fill="#001DC9" opacity="1.000000" stroke="none" 
	d="
M155.144226,244.000183 
	C145.586670,241.936890 136.396500,240.247177 127.504745,237.567337 
	C125.060120,236.830566 121.495605,234.193069 123.620575,229.785202 
	C125.526886,225.830902 128.342758,225.116867 132.418427,226.101227 
	C141.304871,228.247482 150.200363,230.769745 159.240616,231.708496 
	C164.552200,232.260040 170.337234,230.649231 175.567795,228.956024 
	C181.640335,226.990295 184.269211,222.089752 184.003403,215.891464 
	C183.797119,211.081192 180.379852,206.843094 174.710175,205.073456 
	C165.629318,202.239090 156.250244,200.223511 147.413208,196.790894 
	C141.121338,194.346924 134.352783,191.252258 129.822281,186.512192 
	C117.409615,173.525436 126.209435,150.050049 145.077393,145.088394 
	C159.350540,141.335037 173.386948,142.274368 187.297012,146.951675 
	C191.006607,148.199036 193.639603,150.170914 192.719147,154.419846 
	C191.819595,158.572342 188.903412,159.629562 183.707596,158.365143 
	C172.323318,155.594757 160.978851,153.384338 149.232132,156.917313 
	C142.742691,158.869095 138.707428,162.392334 137.992554,168.334702 
	C137.130188,175.503403 138.932861,179.575989 146.034515,182.381409 
	C153.157135,185.195114 160.768646,186.750732 168.111023,189.034180 
	C176.093185,191.516602 184.017273,193.809082 190.525574,199.821320 
	C199.190369,207.825638 199.222473,223.803848 190.592422,232.933075 
	C183.521606,240.412857 174.790283,243.868179 164.621628,243.995132 
	C161.622910,244.032578 158.623337,244.000595 155.144226,244.000183 
z"/>
<path fill="#107300" opacity="1.000000" stroke="none" 
	d="
M508.400909,40.781498 
	C509.050140,46.608669 509.772308,52.043854 509.954224,57.497063 
	C510.297974,67.803192 514.352173,71.633545 524.475037,72.069786 
	C550.358337,73.185234 576.054993,76.052872 600.785400,84.173935 
	C614.885132,88.804047 628.339111,95.101646 638.233459,106.836487 
	C641.254089,110.419014 643.621765,114.552116 646.709595,119.045967 
	C642.964783,119.874939 640.392944,121.385201 638.715027,117.519341 
	C632.079224,102.230309 619.276733,93.863007 604.557922,88.102829 
	C589.077026,82.044395 572.940491,78.420624 556.343262,76.929474 
	C546.785645,76.070801 537.258240,74.856522 527.693787,74.098259 
	C515.680359,73.145851 506.472900,77.191315 502.674255,90.744461 
	C500.363281,98.989769 496.444916,106.798882 493.064362,114.725365 
	C490.532135,120.662704 488.935547,121.163506 480.759125,119.139984 
	C483.886566,112.328918 487.073761,105.630882 490.041626,98.837021 
	C491.962677,94.439354 493.664093,89.937775 495.282898,85.417938 
	C497.627289,78.872200 495.373627,75.166954 488.288177,75.142769 
	C477.666718,75.106522 467.016052,75.419151 456.427460,76.231071 
	C445.383911,77.077881 434.334595,78.291176 423.401672,80.051445 
	C397.431488,84.232803 371.503906,88.694672 345.611969,93.337830 
	C336.661438,94.942909 327.877472,97.464737 318.995117,99.468887 
	C316.269135,100.083954 314.500000,101.127441 313.164642,103.983536 
	C312.292786,105.848320 308.823273,108.060226 307.084351,107.659019 
	C302.271545,106.548607 299.625092,109.041702 296.685242,111.782196 
	C294.140747,114.154121 291.502350,116.434502 288.791779,118.613937 
	C287.891846,119.337517 286.638916,119.622124 285.547394,120.107430 
	C285.250519,119.682976 284.953644,119.258530 284.656769,118.834076 
	C289.284058,114.550529 293.911316,110.266991 298.538605,105.983444 
	C298.409180,105.648453 298.279785,105.313461 298.150360,104.978470 
	C291.485809,106.800468 284.794067,108.529549 278.163452,110.467628 
	C269.575531,112.977821 261.080048,115.813148 252.457504,118.192177 
	C248.217056,119.362152 243.780151,119.820061 239.432144,120.600204 
	C239.275589,120.031624 239.119034,119.463036 238.962479,118.894455 
	C243.948502,117.269272 248.900574,115.529488 253.926987,114.040634 
	C268.380066,109.759537 282.882477,105.643532 297.307556,101.271378 
	C298.922119,100.782005 300.088562,98.951286 301.598663,97.946808 
	C303.650208,96.582214 306.408417,93.907059 307.846680,94.456390 
	C311.561218,95.875076 313.154663,93.966537 315.576630,92.074081 
	C339.881317,73.083038 364.825714,55.055031 392.072998,40.367065 
	C409.813843,30.803646 428.032288,22.575306 447.629181,17.677176 
	C459.829102,14.627874 472.293243,13.321522 484.586823,16.235739 
	C497.206238,19.227190 505.333771,27.464790 508.400909,40.781498 
M317.878784,96.023178 
	C318.211487,96.003456 318.551025,96.019943 318.875946,95.958870 
	C349.283783,90.242584 379.564392,83.685341 410.137817,79.066475 
	C433.997375,75.461899 458.211914,74.164101 482.287903,72.061516 
	C489.319855,71.447403 495.334747,68.552948 499.569397,63.459354 
	C501.717316,60.875763 501.428375,56.157864 501.941833,52.364346 
	C502.251770,50.074501 502.063202,47.703850 501.968567,45.374794 
	C501.443573,32.451046 492.930664,22.151421 480.531403,18.611851 
	C469.697754,15.519239 459.155884,17.191525 448.610992,19.679775 
	C423.271729,25.659000 400.223969,37.136555 378.659943,51.177494 
	C357.317047,65.074463 337.034454,80.599876 316.039429,95.695526 
	C316.013306,95.975471 315.987183,96.255424 315.961060,96.535385 
	C316.330475,96.385628 316.699890,96.235870 317.878784,96.023178 
z"/>
<path fill="#001DC9" opacity="1.000000" stroke="none" 
	d="
M967.241333,172.463074 
	C961.850098,184.438751 961.089539,196.321411 964.828430,208.558167 
	C968.980530,222.147308 980.768127,229.403030 993.565063,231.180878 
	C1004.680115,232.725067 1014.481079,229.618011 1024.533081,226.041260 
	C1026.728516,225.260040 1030.143066,225.605728 1032.062988,226.860397 
	C1035.365356,229.018539 1034.844727,233.149887 1030.987549,235.334793 
	C1022.838623,239.950699 1014.322632,243.910187 1004.681824,243.953018 
	C996.812622,243.987991 989.083923,244.280884 981.279968,241.335709 
	C967.216675,236.028305 957.352600,226.700058 952.290222,212.934265 
	C947.387756,199.603531 947.442871,185.831406 953.051331,172.508698 
	C960.237854,155.437286 975.562622,143.820709 994.911987,142.940323 
	C1007.270020,142.378052 1018.780579,144.790924 1029.570190,150.842438 
	C1032.373169,152.414597 1035.031616,154.396942 1033.742310,157.724167 
	C1032.944824,159.782043 1030.266479,162.506165 1028.478638,162.472565 
	C1025.464355,162.415894 1022.502441,160.364929 1019.491333,159.224350 
	C1006.233459,154.202393 992.814819,153.572937 980.139221,160.236786 
	C975.184814,162.841476 971.618225,168.086075 967.241333,172.463074 
z"/>
<path fill="#001DC9" opacity="1.000000" stroke="none" 
	d="
M443.826691,151.721451 
	C464.772797,138.732376 485.393921,140.275894 505.736542,152.124329 
	C507.417297,153.103287 509.041107,156.940079 508.400543,158.520477 
	C507.346924,161.119873 504.801056,163.941727 500.933350,161.968063 
	C491.072876,156.936356 480.642059,154.946045 469.629089,155.990417 
	C451.374664,157.721527 441.911194,166.873520 438.155121,183.553116 
	C435.383148,195.862656 437.228027,207.696121 444.667816,218.332062 
	C450.022095,225.986465 457.771851,229.339401 466.547943,230.998535 
	C478.136200,233.189316 488.994904,230.546326 499.483276,225.848465 
	C503.286987,224.144760 506.698914,224.599014 508.378998,228.266922 
	C510.137909,232.106827 507.441895,234.548813 504.125275,236.452347 
	C492.039886,243.388550 478.809784,245.696838 465.391754,243.776230 
	C444.180969,240.740158 429.650146,226.732544 425.124908,205.890915 
	C421.532013,189.343445 424.602783,173.749634 435.007599,160.085037 
	C437.358185,156.998016 440.685059,154.654388 443.826691,151.721451 
z"/>
<path fill="#001DC9" opacity="1.000000" stroke="none" 
	d="
M1046.987671,156.063614 
	C1042.988647,156.049973 1040.899048,153.379517 1041.312744,150.071350 
	C1041.716797,146.840256 1043.897583,143.992722 1048.022949,143.996780 
	C1071.164795,144.019485 1094.309326,143.856689 1117.443848,144.267410 
	C1119.638062,144.306366 1122.923096,147.536987 1123.616699,149.898346 
	C1124.359741,152.427307 1122.683594,155.720917 1117.974976,156.031586 
	C1114.652100,156.031891 1112.173096,155.914200 1109.703979,156.021851 
	C1102.826294,156.321686 1095.952637,156.714996 1089.077393,157.071396 
	C1089.051636,183.215424 1089.027466,209.359436 1088.998413,235.503464 
	C1088.993530,239.979385 1085.976807,243.866409 1082.507568,243.895782 
	C1079.064697,243.924927 1076.011475,239.999329 1076.008423,235.438690 
	C1075.990967,209.627075 1075.991211,183.815445 1075.587280,157.376251 
	C1065.788574,156.520325 1056.388184,156.291962 1046.987671,156.063614 
z"/>
<path fill="#001DC9" opacity="1.000000" stroke="none" 
	d="
M311.666992,230.778366 
	C313.539459,227.889908 315.573242,227.968933 318.302887,228.888809 
	C324.329163,230.919662 330.358185,232.996964 336.992279,231.079056 
	C342.252319,229.558426 345.595062,226.355087 346.763184,221.218323 
	C347.593353,217.567749 347.929016,213.735840 347.950684,209.981796 
	C348.062958,190.501419 347.846710,171.017258 348.194580,151.542419 
	C348.239960,149.000702 350.334625,145.598679 352.501556,144.301437 
	C353.990173,143.410278 357.461487,145.106354 359.616394,146.376038 
	C360.608551,146.960632 360.937744,149.293121 360.943451,150.835358 
	C361.024231,172.647156 361.456970,194.472321 360.841217,216.267044 
	C360.404999,231.708435 350.839294,244.410904 332.891418,244.156311 
	C326.105194,244.060059 319.959320,242.613052 313.940460,239.902390 
	C309.934052,238.098038 309.161316,235.273621 311.666992,230.778366 
z"/>
<path fill="#0019C8" opacity="1.000000" stroke="none" 
	d="
M670.509644,306.112671 
	C668.475464,303.052460 666.707764,300.307434 664.833496,297.396973 
	C662.228394,297.666382 659.508667,297.947601 656.199951,298.289764 
	C656.199951,304.924683 656.199951,311.645691 656.199951,318.479156 
	C652.590454,319.443268 650.962646,318.593201 650.991516,315.170471 
	C651.037598,309.703918 651.003845,304.236725 651.003845,298.860046 
	C644.664612,297.134949 644.664612,297.134949 644.235901,294.024231 
	C651.576355,294.024231 658.862000,293.889679 666.132629,294.159210 
	C667.318420,294.203156 668.563721,295.922791 669.556824,297.063629 
	C670.829651,298.525757 671.874756,300.186066 673.047546,301.801727 
	C676.047424,298.542267 678.872437,295.472870 681.697388,292.403442 
	C682.294617,292.843933 682.891907,293.284393 683.489136,293.724884 
	C682.005554,296.266266 680.753296,298.983398 678.986145,301.309357 
	C676.065308,305.153870 674.419373,309.172089 674.884644,314.131561 
	C675.028137,315.661499 673.759338,317.323944 673.137207,318.925720 
	C672.422913,317.247131 671.366028,315.625153 671.077209,313.876282 
	C670.675354,311.443268 670.848877,308.915192 670.509644,306.112671 
z"/>
<path fill="#001AC8" opacity="1.000000" stroke="none" 
	d="
M534.959839,303.035217 
	C536.728394,305.707886 538.376831,308.036133 540.025269,310.364349 
	C540.352478,310.278839 540.679749,310.193298 541.006958,310.107788 
	C541.006958,305.710815 540.900208,301.309265 541.089661,296.920471 
	C541.131592,295.948700 542.219971,295.022125 542.826477,294.074738 
	C543.546082,294.902740 544.871033,295.717010 544.890198,296.560913 
	C545.055359,303.843506 544.985229,311.131470 544.985229,318.417816 
	C544.581299,318.830750 544.177368,319.243652 543.773376,319.656586 
	C541.974915,318.397766 539.732788,317.476837 538.465820,315.813232 
	C535.362305,311.738403 532.708984,307.320770 528.995300,303.392700 
	C528.995300,307.334076 529.089783,311.278442 528.966248,315.215942 
	C528.861816,318.545898 528.750061,318.542389 523.999268,318.677979 
	C523.999268,314.569275 523.999268,310.468506 523.999268,306.367767 
	C523.999268,302.405945 523.999268,298.444092 523.999268,294.358643 
	C531.430725,292.748474 531.514343,299.775421 534.959839,303.035217 
z"/>
<path fill="#001BC9" opacity="1.000000" stroke="none" 
	d="
M502.999451,306.413269 
	C502.999176,310.809387 502.999176,314.760956 502.999176,318.712494 
	C502.576813,318.913361 502.154419,319.114227 501.732056,319.315063 
	C500.834747,318.291931 499.192719,317.292023 499.159973,316.241913 
	C498.932800,308.956970 499.040131,301.661591 499.040131,294.593933 
	C503.226837,292.915741 505.310120,294.842926 507.027893,297.742859 
	C509.526337,301.960663 512.098389,306.134888 515.617004,310.177368 
	C515.617004,305.071930 515.617004,299.966522 515.617004,294.861084 
	C516.130920,294.510223 516.644836,294.159363 517.158752,293.808472 
	C518.100708,294.767761 519.827759,295.702087 519.859192,296.690277 
	C520.090942,303.984131 519.984619,311.288727 519.984619,318.589966 
	C519.526978,318.977509 519.069336,319.365082 518.611694,319.752625 
	C516.841858,318.419373 514.642883,317.401398 513.386414,315.691010 
	C510.201843,311.355774 507.440125,306.709930 503.366302,302.205627 
	C503.244110,303.459991 503.121918,304.714325 502.999451,306.413269 
z"/>
<path fill="#0018C8" opacity="1.000000" stroke="none" 
	d="
M472.005615,306.066040 
	C472.779968,301.355408 473.891266,297.272278 478.194794,295.006134 
	C482.542938,292.716492 487.084717,292.700165 490.877930,295.527100 
	C496.032013,299.368256 497.498444,305.536255 495.462708,310.997223 
	C493.092102,317.356476 489.466125,319.598938 482.538177,318.990112 
	C477.075592,318.510071 473.061279,313.742737 472.005615,306.066040 
M477.440155,308.805023 
	C479.073730,313.793396 482.424408,316.010986 486.443024,314.763519 
	C490.339325,313.554016 492.287842,308.421906 490.899597,303.025299 
	C489.834534,298.885010 486.439850,296.781616 482.201691,298.148315 
	C477.425507,299.688416 476.692108,303.663696 477.440155,308.805023 
z"/>
<path fill="#0019C8" opacity="1.000000" stroke="none" 
	d="
M923.861633,313.598572 
	C917.422180,320.074341 909.790344,320.786591 905.060120,315.496674 
	C900.604248,310.513672 900.691406,300.384613 906.500488,295.884552 
	C910.135864,293.068329 914.734802,292.369934 919.582764,294.914764 
	C924.440857,297.464874 926.988464,302.980133 925.794983,308.720978 
	C925.467285,310.296997 924.681274,311.777740 923.861633,313.598572 
M917.499390,298.669495 
	C913.811096,297.422729 909.444702,296.898499 908.033997,300.936707 
	C906.899841,304.183289 907.320374,308.796997 908.832642,311.949463 
	C911.055603,316.583374 916.827148,316.250519 919.534668,311.876282 
	C922.333252,307.354858 921.234863,303.065491 917.499390,298.669495 
z"/>
<path fill="#001BC8" opacity="1.000000" stroke="none" 
	d="
M949.001160,307.969055 
	C949.001160,311.772980 949.001160,315.084351 949.001160,318.573029 
	C943.690430,319.967102 942.910095,315.399994 940.998718,312.859314 
	C938.403015,309.408905 936.300537,305.587433 932.990662,302.325409 
	C932.990662,306.929077 933.095276,311.537109 932.905029,316.132935 
	C932.865540,317.085419 931.731201,317.992554 931.101501,318.920593 
	C930.405884,318.060364 929.126221,317.213104 929.106689,316.337799 
	C928.944519,309.050476 929.014648,301.757996 929.014648,293.356201 
	C937.990662,295.734680 938.927368,304.559357 944.308411,309.149536 
	C947.020813,304.270386 942.169250,297.243439 947.133301,292.879822 
	C947.755920,292.992188 948.378540,293.104553 949.001160,293.216919 
	C949.001160,297.970123 949.001160,302.723297 949.001160,307.969055 
z"/>
<path fill="#0019C8" opacity="1.000000" stroke="none" 
	d="
M754.637939,300.706482 
	C754.840271,304.397858 755.641296,307.958160 754.726868,311.003326 
	C753.416809,315.365753 750.330383,318.552643 745.165527,319.047180 
	C739.583252,319.581726 735.256775,317.629089 732.946472,312.650146 
	C730.752502,307.921783 730.803467,302.882324 734.092957,298.475983 
	C739.609680,291.086060 748.895630,290.975006 754.637939,300.706482 
M738.062134,312.401245 
	C740.988831,315.537872 744.504272,316.109161 747.773376,313.503876 
	C751.169373,310.797455 751.735168,306.894989 750.389709,302.757477 
	C749.004089,298.496826 745.768677,297.521729 741.830688,298.043274 
	C736.790039,298.710785 734.546570,306.282928 738.062134,312.401245 
z"/>
<path fill="#001BC8" opacity="1.000000" stroke="none" 
	d="
M781.998779,310.855011 
	C781.998718,305.105591 781.998718,299.837006 781.998718,294.010803 
	C786.273499,294.010803 790.058228,293.793091 793.807556,294.064728 
	C798.731323,294.421448 801.135986,301.011200 798.016418,305.366302 
	C797.160889,306.560608 796.005676,307.540314 794.874878,308.738342 
	C796.872925,311.945038 798.841614,315.104736 800.835510,318.304901 
	C796.782715,320.396118 795.750427,317.323669 794.072937,315.277405 
	C791.996765,312.744812 791.549622,307.988190 786.207031,309.364929 
	C786.062012,312.511017 785.918884,315.616486 785.756592,319.138794 
	C780.161621,318.190674 782.682434,314.010651 781.998779,310.855011 
M786.011902,302.369598 
	C786.187134,306.795044 789.692505,305.046021 791.493896,304.723053 
	C792.840942,304.481567 793.816711,302.169617 794.957764,300.779541 
	C793.535522,299.868378 792.213867,298.485260 790.667603,298.155457 
	C788.286194,297.647614 785.423096,297.415619 786.011902,302.369598 
z"/>
<path fill="#0017C7" opacity="1.000000" stroke="none" 
	d="
M830.117432,317.099487 
	C833.009155,308.890228 835.864075,301.073517 838.651367,293.441864 
	C842.736755,293.460541 843.971313,295.738098 844.884399,298.755676 
	C846.488342,304.055878 848.448730,309.247253 850.187195,314.508240 
	C850.619141,315.815369 850.773010,317.214386 851.054688,318.571136 
	C850.660706,318.835815 850.266724,319.100464 849.872742,319.365112 
	C848.679565,318.307281 846.738770,317.430206 846.431274,316.158264 
	C845.448792,312.094543 842.820190,311.954620 839.424194,311.903076 
	C835.992188,311.851044 835.578613,313.930054 834.707581,316.353149 
	C833.922729,318.536346 832.549072,320.937500 830.117432,317.099487 
z"/>
<path fill="#001BC9" opacity="1.000000" stroke="none" 
	d="
M559.742432,297.995636 
	C557.817444,297.997253 556.328125,297.997253 554.427124,297.997253 
	C554.427124,299.937073 554.427124,301.644562 554.427124,303.767914 
	C555.970886,303.842804 557.585144,303.949036 559.201050,303.991272 
	C560.680237,304.029968 562.161255,303.999481 563.702271,303.999481 
	C563.072998,307.251404 563.072998,307.251404 554.296753,308.513458 
	C554.296753,310.392914 554.296753,312.319977 554.296753,315.020325 
	C556.698730,315.020325 559.140991,314.868225 561.545532,315.102905 
	C562.386414,315.184998 563.134277,316.219696 563.924622,316.819397 
	C563.094360,317.540558 562.296814,318.834900 561.428223,318.884460 
	C557.487366,319.109192 553.526428,318.982880 549.293213,318.982880 
	C549.293213,310.554535 549.293213,302.643036 549.293213,294.532837 
	C553.883118,294.063354 558.408813,293.544159 562.947998,293.206512 
	C563.523926,293.163696 564.588745,294.000793 564.682739,294.556152 
	C564.811401,295.316681 564.466370,296.609009 563.897949,296.938934 
	C562.817749,297.565887 561.435059,297.671722 559.742432,297.995636 
z"/>
<path fill="#001AC9" opacity="1.000000" stroke="none" 
	d="
M758.003479,304.291901 
	C758.003174,301.886444 757.929626,299.890656 758.022766,297.902649 
	C758.179199,294.562592 758.223816,294.564667 763.001892,294.191498 
	C763.001892,299.125763 763.096008,304.026550 762.971130,308.921692 
	C762.877380,312.593475 763.781616,315.053375 768.109619,315.052246 
	C772.395081,315.051147 773.979614,312.756714 773.992554,308.858398 
	C774.008423,304.075653 773.996338,299.292847 773.996338,294.510071 
	C774.483887,294.221497 774.971375,293.932953 775.458923,293.644379 
	C776.299866,294.623322 777.822266,295.571442 777.868164,296.586273 
	C778.115173,302.054199 778.158203,307.545013 777.945190,313.015228 
	C777.804016,316.640625 773.838501,318.989777 768.568298,318.998962 
	C762.644165,319.009338 758.894592,316.230835 758.357666,311.303314 
	C758.119385,309.117065 758.115479,306.905243 758.003479,304.291901 
z"/>
<path fill="#0018C7" opacity="1.000000" stroke="none" 
	d="
M878.239014,306.866180 
	C874.485596,304.921356 873.000305,302.191467 874.497131,298.491669 
	C875.986084,294.811371 882.211182,291.945770 886.309204,293.239349 
	C887.901733,293.742065 889.109436,295.463989 891.348694,297.352722 
	C885.816956,298.027374 882.086487,298.482361 878.356079,298.937347 
	C878.246765,299.658295 878.137390,300.379242 878.028076,301.100189 
	C880.955627,302.565887 884.037720,303.796539 886.754272,305.583069 
	C888.454529,306.701263 890.786194,308.697632 890.732544,310.226257 
	C890.645630,312.703522 889.376831,316.614532 887.633057,317.250763 
	C884.026123,318.566742 879.778015,318.265656 875.794189,318.258575 
	C875.191040,318.257507 874.591431,316.263336 873.990112,315.191101 
	C875.023865,314.788757 876.066833,314.033112 877.089294,314.059937 
	C879.023438,314.110718 880.986633,314.986420 882.857666,314.782867 
	C883.971130,314.661713 885.584106,313.250732 885.765442,312.209442 
	C885.924988,311.293365 884.615723,309.767853 883.578064,309.081573 
	C882.102905,308.105988 880.282532,307.652466 878.239014,306.866180 
z"/>
<path fill="#0017C9" opacity="1.000000" stroke="none" 
	d="
M856.192627,305.729950 
	C852.064148,303.087097 852.398743,299.911865 854.690369,296.853485 
	C858.156189,292.228271 865.065735,291.896393 871.149231,296.898438 
	C867.770020,297.348541 865.404663,297.492432 863.129333,298.022491 
	C861.400085,298.425293 859.785278,299.319214 858.119568,299.994629 
	C859.395325,301.218170 860.600952,302.529327 861.974976,303.630188 
	C862.719543,304.226685 863.715698,304.656128 864.659546,304.831543 
	C868.717224,305.585632 871.406250,308.884094 870.517517,311.961975 
	C869.707825,314.766022 866.055359,317.326050 863.062683,318.721405 
	C861.045776,319.661804 857.918823,318.674286 855.446411,317.983612 
	C854.306580,317.665253 853.544861,315.993073 852.611633,314.934753 
	C852.943359,314.488800 853.275085,314.042816 853.606812,313.596832 
	C855.616516,314.011230 857.676636,314.910522 859.622375,314.708405 
	C861.714539,314.491089 863.699341,313.240234 865.730957,312.440308 
	C864.567261,311.182465 863.579346,309.663086 862.195435,308.732788 
	C860.459167,307.565582 858.398254,306.881287 856.192627,305.729950 
z"/>
<path fill="#0018C7" opacity="1.000000" stroke="none" 
	d="
M703.774292,297.750275 
	C708.997620,292.585419 709.707275,292.452179 719.102844,294.897308 
	C717.258667,301.302704 708.406433,294.450073 707.169067,301.860840 
	C708.828857,302.511230 710.730652,303.198334 712.585205,303.995483 
	C716.269653,305.579376 720.077820,307.315308 719.908630,312.123138 
	C719.765747,316.183716 715.503784,319.142639 710.248535,318.935760 
	C707.499207,318.827484 704.777344,318.021454 702.043091,317.530548 
	C702.032593,316.729614 702.022095,315.928711 702.011597,315.127808 
	C703.923157,314.837463 705.827576,314.395691 707.748596,314.303925 
	C709.328308,314.228516 711.005859,314.923615 712.490906,314.597656 
	C713.457764,314.385437 714.744019,312.998444 714.812500,312.059387 
	C714.881226,311.115601 713.833862,309.700256 712.892029,309.158447 
	C711.209595,308.190582 709.143616,307.907959 707.408203,307.009857 
	C703.744263,305.113770 701.105469,302.614105 703.774292,297.750275 
z"/>
<path fill="#0017C8" opacity="1.000000" stroke="none" 
	d="
M626.089111,309.579407 
	C628.044617,304.037811 629.914368,298.831635 631.911255,293.271454 
	C633.322510,293.702667 634.595520,294.091614 636.246094,294.595947 
	C633.556152,302.275177 631.032654,309.696014 628.286865,317.033722 
	C627.956543,317.916534 626.416382,318.857666 625.446716,318.847473 
	C624.465332,318.837097 622.946533,317.885773 622.609009,316.990173 
	C620.019775,310.119965 617.536133,303.201141 615.387634,296.184753 
	C615.116455,295.299164 616.981750,293.759430 618.526428,291.577423 
	C621.043335,298.894836 623.054199,304.745422 625.075562,310.592407 
	C625.125244,310.735992 625.291748,310.839203 625.403748,310.961273 
	C625.603638,310.612457 625.803528,310.263641 626.089111,309.579407 
z"/>
<path fill="#001AC8" opacity="1.000000" stroke="none" 
	d="
M823.484741,294.002075 
	C828.270996,294.865631 829.389465,298.107391 828.916016,301.770172 
	C827.964539,309.131683 821.955383,308.997314 816.089844,309.255005 
	C816.089844,312.450806 816.089844,315.379761 816.089844,318.308746 
	C815.629333,318.638031 815.168823,318.967316 814.708374,319.296600 
	C813.808167,318.250153 812.163330,317.228058 812.128174,316.153351 
	C811.895264,309.034882 812.007751,301.905090 812.007751,293.999268 
	C815.887268,293.999268 819.465515,293.999268 823.484741,294.002075 
M816.019104,300.607147 
	C816.121033,302.010010 816.222900,303.412872 816.427612,306.231842 
	C819.522217,304.658295 821.877930,303.722717 823.835938,302.256104 
	C824.256042,301.941406 823.172852,298.525177 822.890869,298.540466 
	C820.597656,298.664917 818.330322,299.265900 816.019104,300.607147 
z"/>
<path fill="#0018C7" opacity="1.000000" stroke="none" 
	d="
M461.480164,297.972412 
	C455.880463,299.781433 453.725250,303.840027 455.129059,309.109619 
	C456.325531,313.600861 460.745728,315.803131 466.287384,314.902588 
	C467.743744,314.665894 469.307343,315.089264 470.799713,315.751862 
	C466.206787,319.985840 459.437378,320.146179 455.315735,316.772278 
	C449.481049,311.996155 448.414948,307.713135 451.282440,300.511749 
	C453.416931,295.151154 459.556122,291.989197 465.058960,293.395874 
	C466.930206,293.874176 471.304443,292.665680 469.604706,297.967560 
	C467.171448,297.967560 464.545593,297.967560 461.480164,297.972412 
z"/>
<path fill="#0018C8" opacity="1.000000" stroke="none" 
	d="
M566.003296,306.870148 
	C566.990906,296.205658 571.066223,292.347870 585.590332,294.370087 
	C586.638367,297.128082 585.703064,297.911835 582.745361,298.100403 
	C579.492188,298.307831 575.663757,298.545105 573.223816,300.327240 
	C569.591675,302.980103 570.217224,307.411255 572.125916,311.151581 
	C574.220947,315.256958 578.150757,315.207581 582.106384,314.940521 
	C583.648376,314.836426 585.220825,315.183746 586.726685,315.912262 
	C579.177124,322.668701 566.487061,317.609680 566.003296,306.870148 
z"/>
<path fill="#0019C8" opacity="1.000000" stroke="none" 
	d="
M605.515747,294.099548 
	C606.368103,295.246887 606.765442,296.331696 607.282654,297.743896 
	C604.289062,297.908783 602.006042,298.034515 598.996948,298.200226 
	C598.996948,304.025360 599.092773,309.784729 598.915833,315.535675 
	C598.880554,316.680786 597.801819,317.793823 597.204346,318.921631 
	C596.470398,317.765900 595.149597,316.633545 595.102417,315.450409 
	C594.878662,309.841888 595.002441,304.219452 595.002441,298.260376 
	C592.302246,298.094147 590.039856,297.954865 587.519348,297.799683 
	C586.403564,295.235291 587.014221,293.942505 590.103210,293.989288 
	C595.088135,294.064819 600.074829,294.026978 605.515747,294.099548 
z"/>
<path fill="#0019C9" opacity="1.000000" stroke="none" 
	d="
M894.000977,307.956726 
	C894.000916,302.886444 894.000916,298.303284 894.000916,293.720123 
	C894.651794,293.438171 895.302734,293.156219 895.953613,292.874268 
	C896.967773,294.441528 898.782166,295.971405 898.857422,297.582489 
	C899.181702,304.525482 898.996033,311.492279 898.996033,318.477264 
	C895.669861,319.385284 893.977966,318.710205 894.007080,315.434967 
	C894.027832,313.104797 894.004578,310.774200 894.000977,307.956726 
z"/>
<path fill="#001CC8" opacity="1.000000" stroke="none" 
	d="
M697.999878,311.850861 
	C697.999817,314.453003 697.999817,316.576538 697.999817,318.700104 
	C697.366272,318.898438 696.732727,319.096771 696.099182,319.295105 
	C695.400146,317.629456 693.949402,315.876373 694.131165,314.313141 
	C694.951843,307.255707 691.685791,299.537842 695.897156,293.000702 
	C696.598083,293.067017 697.298950,293.133331 697.999878,293.199646 
	C697.999878,299.257172 697.999878,305.314728 697.999878,311.850861 
z"/>
<path fill="#001BC7" opacity="1.000000" stroke="none" 
	d="
M612.581726,318.345673 
	C610.053589,319.377960 608.944946,318.704559 608.978394,316.149933 
	C609.062988,309.701721 608.900269,303.248138 609.111267,296.805725 
	C609.147522,295.699982 610.536804,294.638550 611.301025,293.556641 
	C611.811157,293.802734 612.321228,294.048798 612.831360,294.294891 
	C612.831360,302.185394 612.831360,310.075928 612.581726,318.345673 
z"/>
<path fill="#001CC8" opacity="1.000000" stroke="none" 
	d="
M638.402344,318.326080 
	C638.109192,311.001404 637.949158,304.058472 638.114868,297.123383 
	C638.142761,295.958038 639.579285,294.826385 640.364929,293.679169 
	C640.901978,293.936829 641.438965,294.194489 641.976013,294.452148 
	C641.976013,301.855652 642.067383,309.262085 641.830688,316.658020 
	C641.807739,317.375397 639.755188,318.027863 638.402344,318.326080 
z"/>
<path fill="#0000AA" opacity="1.000000" stroke="none" 
	d="
M639.593628,153.206848 
	C639.919922,180.656891 639.932312,208.398819 639.926270,236.612915 
	C639.606384,235.852951 639.044067,234.621246 639.041931,233.388580 
	C638.995850,207.416168 639.010986,181.443665 639.028564,155.471191 
	C639.028992,154.813660 639.192322,154.156219 639.593628,153.206848 
z"/>
<path fill="#0000D5" opacity="1.000000" stroke="none" 
	d="
M881.486084,156.893890 
	C884.969971,156.552444 888.915588,156.070847 892.864563,156.041321 
	C904.968506,155.950775 917.073792,156.033737 929.653809,156.070068 
	C928.770630,156.393143 927.413025,156.953339 926.053467,156.958069 
	C911.352234,157.009155 896.650696,156.972885 881.486084,156.893890 
z"/>
<path fill="#000FBF" opacity="1.000000" stroke="none" 
	d="
M879.514160,200.072739 
	C881.314819,199.745102 883.576416,199.069534 885.842834,199.053314 
	C898.609802,198.962006 911.377869,199.029190 924.619019,199.052933 
	C923.371826,199.375702 921.652710,199.947800 919.930115,199.958755 
	C906.612915,200.043396 893.295044,200.019531 879.514160,200.072739 
z"/>
<path fill="#0000D4" opacity="1.000000" stroke="none" 
	d="
M1089.538574,157.043640 
	C1095.952637,156.714996 1102.826294,156.321686 1109.703979,156.021851 
	C1112.173096,155.914200 1114.652100,156.031891 1117.597900,156.061646 
	C1114.530762,156.384354 1110.996948,156.867661 1107.452759,156.960297 
	C1101.638550,157.112259 1095.817749,157.010590 1089.538574,157.043640 
z"/>
<path fill="#0000D4" opacity="1.000000" stroke="none" 
	d="
M1047.262207,156.387985 
	C1056.388184,156.291962 1065.788574,156.520325 1075.560059,156.913162 
	C1066.466431,156.955887 1057.001587,156.834122 1047.262207,156.387985 
z"/>
<path fill="#000000" opacity="1.000000" stroke="none" 
	d="
M241.191376,335.058533 
	C251.787659,333.511047 261.941498,332.033264 272.079437,330.453369 
	C279.222443,329.340179 286.343811,328.088257 294.041687,327.998962 
	C291.317566,330.162354 288.707642,332.491241 285.850952,334.462555 
	C265.772675,348.317902 245.495773,361.843628 223.380844,372.359192 
	C209.116760,379.141724 194.679276,385.529694 179.061996,388.379669 
	C166.086426,390.747559 152.913864,392.369843 141.132095,384.016785 
	C131.295288,377.042633 128.641785,366.670502 129.278748,355.482422 
	C129.662689,348.738800 137.827637,342.224976 144.552567,342.025269 
	C157.347107,341.645325 170.184631,341.861816 182.929886,340.872070 
	C202.234039,339.373077 221.474579,337.054810 241.191376,335.058533 
z"/>
<path fill="#000000" opacity="1.000000" stroke="none" 
	d="
M345.876526,300.914978 
	C345.699371,301.237396 345.328552,301.387695 344.957764,301.537994 
	C344.984283,301.257416 345.010803,300.976807 345.161346,300.553284 
	C345.417877,300.521179 345.550385,300.632019 345.876526,300.914978 
z"/>
<path fill="#000000" opacity="1.000000" stroke="none" 
	d="
M599.301147,216.170868 
	C590.791626,229.191650 574.772217,234.831512 558.533569,230.704498 
	C543.096375,226.781158 534.363037,215.574020 532.856140,199.109055 
	C531.862305,188.250961 533.707764,178.619736 539.711609,169.282547 
	C546.753967,158.330307 563.540344,153.535233 574.297974,155.550247 
	C582.348022,157.058121 589.285156,159.757156 595.165344,165.559067 
	C601.400696,171.711441 603.923645,179.468369 604.869446,187.666916 
	C606.002502,197.488770 604.537964,207.095245 599.301147,216.170868 
z"/>
<path fill="#000000" opacity="1.000000" stroke="none" 
	d="
M268.721680,191.320068 
	C270.705841,196.186401 272.495239,200.715042 274.443054,205.644653 
	C261.913147,205.644653 249.654617,205.644653 236.735107,205.644653 
	C242.940887,190.791962 248.983200,176.330505 255.025497,161.869034 
	C255.487564,161.890717 255.949615,161.912399 256.411682,161.934097 
	C260.450104,171.616852 264.488525,181.299606 268.721680,191.320068 
z"/>
<path fill="#000000" opacity="1.000000" stroke="none" 
	d="
M316.286774,95.410995 
	C337.034454,80.599876 357.317047,65.074463 378.659943,51.177494 
	C400.223969,37.136555 423.271729,25.659000 448.610992,19.679775 
	C459.155884,17.191525 469.697754,15.519239 480.531403,18.611851 
	C492.930664,22.151421 501.443573,32.451046 501.968567,45.374794 
	C502.063202,47.703850 502.251770,50.074501 501.941833,52.364346 
	C501.428375,56.157864 501.717316,60.875763 499.569397,63.459354 
	C495.334747,68.552948 489.319855,71.447403 482.287903,72.061516 
	C458.211914,74.164101 433.997375,75.461899 410.137817,79.066475 
	C379.564392,83.685341 349.283783,90.242584 318.875946,95.958870 
	C318.551025,96.019943 318.211487,96.003456 317.281036,95.882828 
	C316.551086,95.631989 316.418915,95.521484 316.286774,95.410995 
z"/>
<path fill="#000000" opacity="1.000000" stroke="none" 
	d="
M316.876282,95.914307 
	C316.699890,96.235870 316.330475,96.385628 315.961060,96.535378 
	C315.987183,96.255424 316.013306,95.975471 316.163086,95.553253 
	C316.418915,95.521484 316.551086,95.631989 316.876282,95.914307 
z"/>
<path fill="#000000" opacity="1.000000" stroke="none" 
	d="
M477.274658,308.432495 
	C476.692108,303.663696 477.425507,299.688416 482.201691,298.148315 
	C486.439850,296.781616 489.834534,298.885010 490.899597,303.025299 
	C492.287842,308.421906 490.339325,313.554016 486.443024,314.763519 
	C482.424408,316.010986 479.073730,313.793396 477.274658,308.432495 
z"/>
<path fill="#000000" opacity="1.000000" stroke="none" 
	d="
M917.862244,298.860657 
	C921.234863,303.065491 922.333252,307.354858 919.534668,311.876282 
	C916.827148,316.250519 911.055603,316.583374 908.832642,311.949463 
	C907.320374,308.796997 906.899841,304.183289 908.033997,300.936707 
	C909.444702,296.898499 913.811096,297.422729 917.862244,298.860657 
z"/>
<path fill="#000000" opacity="1.000000" stroke="none" 
	d="
M737.891479,312.048279 
	C734.546570,306.282928 736.790039,298.710785 741.830688,298.043274 
	C745.768677,297.521729 749.004089,298.496826 750.389709,302.757477 
	C751.735168,306.894989 751.169373,310.797455 747.773376,313.503876 
	C744.504272,316.109161 740.988831,315.537872 737.891479,312.048279 
z"/>
<path fill="#000000" opacity="1.000000" stroke="none" 
	d="
M786.008911,301.926758 
	C785.423096,297.415619 788.286194,297.647614 790.667603,298.155457 
	C792.213867,298.485260 793.535522,299.868378 794.957764,300.779572 
	C793.816711,302.169617 792.840942,304.481567 791.493896,304.723053 
	C789.692505,305.046021 786.187134,306.795044 786.008911,301.926758 
z"/>
<path fill="#000000" opacity="1.000000" stroke="none" 
	d="
M816.037109,300.164490 
	C818.330322,299.265900 820.597656,298.664917 822.890869,298.540466 
	C823.172852,298.525177 824.256042,301.941406 823.835938,302.256104 
	C821.877930,303.722717 819.522217,304.658295 816.427612,306.231842 
	C816.222900,303.412872 816.121033,302.010010 816.037109,300.164490 
z"/>
</svg>